<svg width="494" height="597" viewBox="0 0 494 597" fill="none" xmlns="http://www.w3.org/2000/svg">
<g clip-path="url(#clip0_414_31)">
<path d="M95.0389 234.126C94.4695 233.235 90.881 227.624 88.2223 228.192C83.1827 229.27 85.9165 251.6 78.59 253.827C76.9821 254.316 74.7189 253.889 69.664 255.241C67.6531 255.778 66.6106 256.221 66.2869 257.111C65.8275 258.374 67.2167 259.436 69.2796 262.514C72.3733 267.131 71.4221 267.986 74.1427 271.295C76.1625 273.751 77.7475 274.571 77.4368 275.649C76.9971 277.174 73.5394 276.518 72.7088 278.267C71.8614 280.052 74.3218 283.136 76.4497 285.021C80.4429 288.56 84.4226 288.901 88.067 290.061C92.0276 291.322 97.444 294.138 103.051 301.179L147.86 361.833C144.247 360.463 137.206 357.65 127.601 352.839C119.5 348.779 111.469 344.159 103.729 339.101C100.392 336.92 97.475 334.891 94.855 333.001L95.1209 333.14L93.8409 328.508C93.3498 326.667 93.0281 325.163 93.7093 323.954C94.0852 323.307 94.7944 322.64 95.6207 321.866C96.5683 320.982 97.6444 319.98 98.6925 318.589C99.6641 317.338 99.8852 316.222 99.3999 315.287C99.2354 314.969 99.0191 314.743 98.791 314.577C99.0516 314.165 99.3483 313.677 99.6123 313.092C100.172 311.848 100.308 310.783 100.407 309.991C100.813 306.804 100.297 304.927 98.8677 304.409C98.2634 304.191 97.7179 304.291 97.2612 304.505C97.2273 303.852 97.1402 303.083 96.902 302.254C96.1351 299.593 95.0678 298.244 93.6474 298.132C91.6627 297.975 90.6615 300.169 89.5046 302.703C88.986 303.829 87.6252 306.829 86.9147 306.831C86.8267 306.83 86.576 306.777 86.3538 306.728C85.7451 306.595 84.8271 306.396 83.3941 306.356C82.5909 306.333 81.3779 306.298 80.6359 307.293C79.9748 308.247 80.301 309.26 80.6012 310.071C80.7007 310.338 80.8197 310.656 80.9389 311.041C81.2112 311.919 81.2567 312.393 81.3013 312.852C81.3592 313.449 81.4194 314.069 81.8473 315.089C81.8835 315.172 81.9165 315.249 81.9503 315.325C81.5481 315.417 81.1266 315.611 80.7725 316.005C79.4398 317.455 80.683 319.857 81.2749 320.812C82.3395 322.523 83.6884 323.344 84.7733 324.005C85.0469 324.172 85.3158 324.335 85.5755 324.512C86.9215 325.429 88.0379 326.818 88.9323 328.605C87.8743 327.799 86.8625 327.023 85.9129 326.292C82.5117 323.675 79.3138 321.125 76.1962 318.639C72.9904 316.082 69.8513 313.58 66.6578 311.139L66.8591 310.261L66.0876 310.709C61.0517 306.879 55.865 303.201 50.0416 299.711C49.803 299.568 49.5206 299.4 49.2295 299.23L48.9523 298.226C48.4612 296.385 48.1395 294.882 48.8207 293.673C49.1966 293.026 49.9059 292.358 50.7322 291.585C51.6796 290.701 52.7558 289.699 53.8038 288.308C54.7754 287.057 54.9966 285.941 54.5112 285.006C54.3467 284.688 54.1305 284.462 53.9024 284.296C54.1629 283.883 54.4597 283.396 54.7236 282.81C55.2828 281.566 55.4198 280.502 55.5187 279.709C55.9247 276.523 55.4087 274.646 53.9791 274.128C53.3749 273.91 52.8293 274.009 52.3726 274.224C52.3387 273.57 52.2517 272.801 52.0133 271.973C51.2465 269.311 50.1793 267.962 48.7589 267.851C46.7741 267.694 45.7729 269.887 44.616 272.422C44.0973 273.548 42.7366 276.547 42.026 276.55C41.938 276.549 41.6874 276.495 41.4653 276.446C40.8565 276.314 39.9385 276.115 38.5056 276.074C37.7023 276.052 36.4893 276.017 35.7473 277.012C35.0862 277.965 35.4123 278.979 35.7126 279.789C35.8122 280.057 35.931 280.374 36.0503 280.76C36.3225 281.638 36.368 282.111 36.4128 282.57C36.4706 283.167 36.5307 283.787 36.9587 284.808C36.9949 284.891 37.0279 284.968 37.0616 285.044C36.6595 285.136 36.238 285.33 35.8838 285.723C34.5511 287.174 35.7943 289.575 36.3864 290.531C37.451 292.241 38.7998 293.063 39.8846 293.724C40.1583 293.891 40.4272 294.054 40.6869 294.231C41.4477 294.749 42.1321 295.425 42.7514 296.225C40.776 295.558 38.4952 295.01 35.9232 294.774C32.8495 294.493 29.7355 294.7 26.6314 295.377C26.6096 295.143 26.5882 294.913 26.5644 294.658C26.3005 291.803 26.1074 290.619 25.1235 289.508C24.6458 288.966 23.9141 288.37 21.8222 287.689C18.9227 286.745 16.4391 286.602 15.7451 286.58C12.2788 286.481 9.28495 286.397 6.56678 288.487C6.04813 288.884 4.47305 290.084 3.60848 292.201C3.16592 293.272 3.08612 294.141 3.02207 294.84C2.95449 295.571 2.91192 296.054 2.50166 296.73C2.24271 297.162 1.93118 297.513 1.6836 297.796C1.20548 298.363 0.306787 299.401 1.05998 300.528C1.24098 300.8 1.46974 300.992 1.72974 301.121C1.59177 302.077 1.6759 303.066 2.14933 303.961C2.57351 304.766 3.30464 305.306 5.27441 306.268C8.2884 307.741 10.7174 308.458 11.1999 308.594C14.3262 309.48 15.8939 309.925 17.5743 309.861C21.1504 309.718 23.7482 308.609 25.2952 306.563C25.3732 306.463 25.4454 306.361 25.5144 306.259C26.5988 304.651 26.7162 302.969 26.9036 300.291C26.939 299.774 26.9285 299.178 26.8832 298.418C29.8154 297.737 32.7539 297.504 35.6462 297.769C41.907 298.343 46.3558 301.009 48.4925 302.291C53.8139 305.48 58.6115 308.847 63.2639 312.348L62.7031 312.674C61.047 313.616 59.6745 314.308 58.3317 313.956C57.611 313.757 56.785 313.24 55.8276 312.637C54.7316 311.945 53.4898 311.158 51.8786 310.497C50.422 309.874 49.2865 309.943 48.5051 310.65C48.239 310.89 48.0755 311.156 47.9727 311.419C47.5075 311.272 46.9609 311.108 46.3275 311.002C44.9824 310.776 43.9179 310.914 43.1261 311.019C39.9409 311.435 38.256 312.41 38.1177 313.924C38.06 314.564 38.2948 315.066 38.6183 315.454C37.9946 315.652 37.2727 315.932 36.5314 316.372C34.1517 317.789 33.1176 319.164 33.3703 320.566C33.7218 322.525 36.0972 322.937 38.8424 323.414C40.0631 323.63 43.3097 324.185 43.4925 324.872C43.5139 324.957 43.5253 325.213 43.5344 325.441C43.5607 326.063 43.6008 327.002 43.9255 328.398C44.1073 329.181 44.3809 330.363 45.5315 330.828C46.6217 331.226 47.5196 330.653 48.2273 330.157C48.4606 329.993 48.7377 329.798 49.08 329.584C49.8604 329.098 50.3071 328.934 50.7397 328.775C51.3027 328.567 51.8871 328.352 52.7656 327.679C52.8366 327.623 52.9028 327.572 52.9677 327.52C53.1587 327.885 53.4533 328.244 53.9238 328.486C55.6648 329.408 57.6723 327.596 58.4466 326.781C59.831 325.317 60.2833 323.804 60.6476 322.587C60.7396 322.28 60.8297 321.979 60.9351 321.682C61.5971 319.82 62.9789 318.097 65.044 316.56L65.4905 316.228L65.9172 314.367C68.7204 316.53 71.496 318.737 74.3223 320.991C77.4506 323.487 80.663 326.048 84.0781 328.676C88.6063 332.159 94.2397 336.495 102.086 341.621C109.919 346.739 118.05 351.417 126.255 355.528C133.563 359.189 139.415 361.712 143.431 363.33C131.729 364.113 115.542 365.042 108.227 365.174C105.382 365.225 102.451 365.181 100.362 363.213C98.3507 361.318 97.362 357.868 94.4356 354.266C94.0938 353.846 93.1275 352.687 92.2723 352.892C91.565 353.061 91.578 354.008 90.9201 354.176C90.0376 354.401 89.2984 352.88 87.4722 351.449C86.1846 350.44 85.011 349.989 84.0018 349.601C83.6976 349.484 79.1378 347.764 78.3004 349.015C77.6714 349.955 79.688 351.758 79.0892 352.553C78.4926 353.345 76.2829 351.831 72.9484 351.956C72.3471 351.979 68.5577 352.121 68.0695 353.59C67.1442 356.374 78.893 361.475 77.8721 365.714C77.648 366.644 76.7851 367.631 75.9903 370.503C75.6741 371.645 75.5903 372.284 75.9339 372.7C76.4213 373.29 77.3433 372.914 79.4493 372.79C82.6079 372.604 82.7528 373.317 85.162 372.937C86.9505 372.654 87.81 372.113 88.2493 372.576C88.8711 373.232 87.5517 374.74 88.1704 375.652C88.8018 376.583 91.0253 376.265 92.5648 375.765C95.4535 374.826 96.7693 372.971 98.3901 371.517C100.152 369.937 103.097 368.091 108.171 367.371L144.086 363.592C146.186 364.429 147.733 365.001 148.634 365.334C149.114 365.511 149.422 365.621 149.55 365.679L150.025 364.764L150.558 365.485C150.393 365.25 150.212 364.99 150.037 364.741L150.24 364.351L151.615 363.741C151.43 363.32 151.227 363.136 150.679 362.899L153.439 362.608C152.605 362.676 151.6 362.753 150.526 362.832C150.299 362.741 150.022 362.638 149.675 362.51C149.27 362.361 148.722 362.158 148.065 361.91C137.173 346.205 114.768 312.929 106.428 299.309C103.819 295.047 101.276 290.57 102.396 285.655C103.475 280.923 107.818 276.355 110.667 268.718C111 267.826 111.895 265.331 110.823 264.218C109.937 263.298 108.515 264.161 107.675 263.314C106.548 262.179 108.194 259.705 108.735 255.666C109.116 252.818 108.755 250.64 108.444 248.767C108.35 248.202 106.896 239.766 104.256 239.612C102.272 239.497 101.337 244.155 99.6006 243.956C97.8703 243.757 98.1965 239.063 95.0389 234.126Z" fill="#45464B"/>
<path d="M462.104 430.248L141.351 385.915C130.616 384.432 121.756 376.74 118.777 366.319L45.1088 108.479C42.6126 99.7402 44.4762 90.6913 50.2218 83.6503C55.9675 76.6094 64.4564 72.9706 73.5211 73.6624L396.68 98.421C408.371 99.3165 418.185 107.549 421.103 118.906L492.365 396.32C494.639 405.173 492.365 414.531 486.281 421.351C481.042 427.226 473.613 430.507 465.87 430.507C464.621 430.507 463.362 430.421 462.104 430.248Z" fill="#737282"/>
<path d="M380.994 372.565L279.258 358.504C275.854 358.034 273.043 355.594 272.099 352.289L248.733 270.508C247.941 267.736 248.532 264.866 250.354 262.633C252.177 260.4 254.869 259.245 257.744 259.465L360.243 267.318C363.951 267.602 367.064 270.213 367.989 273.815L390.592 361.804C391.313 364.612 390.592 367.58 388.662 369.744C387.001 371.607 384.644 372.647 382.188 372.647C381.792 372.647 381.393 372.62 380.994 372.565Z" fill="white"/>
<path d="M371.892 145.673L183.036 128.289C178.275 127.851 174.569 125.662 174.777 123.411C174.984 121.16 179.026 119.686 183.788 120.124L372.644 137.508C377.405 137.947 381.109 140.134 380.901 142.385C380.694 144.636 376.653 146.111 371.892 145.673Z" fill="white"/>
<path d="M382.19 195.311L193.334 177.927C188.573 177.489 184.868 175.301 185.075 173.05C185.282 170.799 189.325 169.324 194.086 169.763L382.942 187.147C387.703 187.585 391.407 189.772 391.2 192.023C390.992 194.274 386.951 195.749 382.19 195.311Z" fill="white"/>
<path d="M385.827 238.575L196.971 221.191C192.21 220.753 188.505 218.565 188.712 216.314C188.919 214.063 192.962 212.588 197.723 213.027L386.579 230.411C391.34 230.849 395.044 233.036 394.837 235.287C394.629 237.538 390.588 239.013 385.827 238.575Z" fill="white"/>
<path d="M272.031 217.677C276.772 212.513 283.279 210.772 286.565 213.79C289.851 216.807 288.672 223.438 283.929 228.604C282.063 230.694 279.724 232.306 277.107 233.306L256.746 254.935L246.8 245.163L267.928 224.879C268.701 222.185 270.108 219.715 272.031 217.677Z" fill="#FFB6B6"/>
<path d="M155.949 222.49C155.949 222.49 167.847 211.608 182.085 221.109C196.323 230.611 229.479 254.915 229.479 254.915L252.712 226.101L271.019 242.694C271.019 242.694 238.726 299.574 217.863 287.056C196.999 274.537 150.423 238.801 152.538 231.407C154.652 224.013 155.949 222.49 155.949 222.49Z" fill="#17B8A6"/>
<path d="M244.05 487.954L225.093 523.278L209.48 504.383L227.441 480.114L244.05 487.954Z" fill="#FFB6B6"/>
<path d="M231.791 518.395L223.77 561.734C223.77 561.734 218.387 576.764 209.733 561.497C201.08 546.23 185.411 514.644 194.419 508.855C203.427 503.066 214.307 498.389 214.307 498.389L231.791 518.395Z" fill="#2F2E41"/>
<path d="M255.237 526.423L275.237 562.423L250.237 565.423L239.237 536.423L255.237 526.423Z" fill="#FFB6B6"/>
<path d="M149.237 200.423C149.237 200.423 147.237 220.423 144.237 222.423C141.237 224.423 179.253 222.423 179.253 222.423L168.237 200.423H149.237Z" fill="#FFB6B6"/>
<path d="M190.23 228.438L176.237 217.423H142.025L119.237 236.423L133.737 303.923L126.737 336.923L215.737 339.923L199.737 309.923C199.737 309.923 218.737 289.923 212.737 276.923C206.737 263.923 190.23 228.438 190.23 228.438Z" fill="#17B8A6"/>
<path d="M206.737 331.923L219.737 338.923C219.737 338.923 289.737 404.923 283.737 424.923C277.737 444.923 237.737 501.923 237.737 501.923L218.737 491.923L246.737 430.923L193.237 377.423L221.956 428.048L262.737 534.923L238.737 544.923L176.737 419.923C176.737 419.923 125.737 384.923 122.737 362.923C119.737 340.923 126.737 336.923 126.737 336.923L206.737 331.923Z" fill="#2F2E41"/>
<path d="M274.737 553.923L307.737 584.923C307.737 584.923 317.737 597.923 299.737 596.923C281.737 595.923 245.737 591.923 245.737 580.923C245.737 569.923 247.737 557.923 247.737 557.923L274.737 553.923Z" fill="#2F2E41"/>
<path d="M159.237 205.423C171.94 205.423 182.237 195.125 182.237 182.423C182.237 169.72 171.94 159.423 159.237 159.423C146.535 159.423 136.237 169.72 136.237 182.423C136.237 195.125 146.535 205.423 159.237 205.423Z" fill="#FFB6B6"/>
<path d="M259.013 274.196L240.058 331.923C239.553 333.461 238.24 334.596 236.645 334.873L200.395 341.178C197.144 341.743 194.458 338.65 195.473 335.51L214.404 276.999C214.914 275.42 216.274 274.265 217.914 274.015L254.189 268.495C257.419 268.004 260.032 271.092 259.013 274.196Z" fill="white"/>
<path d="M199.626 342.244C198.083 342.244 196.617 341.585 195.579 340.389C194.331 338.952 193.936 337.013 194.522 335.203L213.452 276.691C214.084 274.739 215.736 273.335 217.764 273.027L254.039 267.507C255.9 267.223 257.74 267.913 258.958 269.351C260.175 270.79 260.551 272.718 259.963 274.508L241.008 332.234C240.386 334.128 238.78 335.516 236.817 335.859L200.566 342.163C200.251 342.218 199.937 342.244 199.626 342.244ZM254.858 269.444C254.686 269.444 254.513 269.457 254.34 269.483L218.065 275.004C216.79 275.197 215.752 276.08 215.355 277.307L196.474 335.666C196.128 336.737 196.241 337.94 196.906 338.848C197.684 339.909 198.95 340.41 200.223 340.192L214.77 337.663C229.359 335.126 241.36 324.751 245.98 310.681L258.027 273.993C258.33 273.069 258.293 272.039 257.814 271.193C257.183 270.079 256.059 269.444 254.858 269.444Z" fill="#3F3D56"/>
<path d="M203.678 319.167C210.683 319.426 216.228 323.251 216.062 327.71C215.896 332.168 210.083 335.57 203.075 335.31C200.275 335.244 197.53 334.509 195.072 333.165L165.404 331.691L166.392 317.784L195.535 320.713C198.087 319.555 200.879 319.025 203.678 319.167Z" fill="#FFB6B6"/>
<path d="M124.737 233.923C124.737 233.923 140.737 235.923 142.737 252.923C144.737 269.923 147.737 310.923 147.737 310.923L184.737 309.923L183.977 334.619C183.977 334.619 119.737 346.923 115.737 322.923C111.737 298.923 108.737 240.293 115.737 237.108C122.737 233.923 124.737 233.923 124.737 233.923Z" fill="#17B8A6"/>
<path d="M332.507 73.4144L324.277 69.5158C327.652 74.2267 330.561 81.5839 332.118 87.4383C334.755 81.9849 339.005 75.3122 343.212 71.3264L334.514 73.5641C339.874 47.2961 360.033 28.4383 383.118 28.4383L383.445 27.4895C359.332 27.4895 337.979 46.0859 332.507 73.4144Z" fill="#3F3D56"/>
<path d="M370.386 113.438H318.386C316.181 113.438 314.386 111.644 314.386 109.438C314.386 107.233 316.181 105.438 318.386 105.438H370.386C372.592 105.438 374.386 107.233 374.386 109.438C374.386 111.644 372.592 113.438 370.386 113.438Z" fill="#17B8A6"/>
<path d="M252.177 283.12L218.077 285.994C217.218 286.066 216.459 285.426 216.387 284.566C216.314 283.706 216.955 282.948 217.815 282.876L251.914 280.002C252.774 279.93 253.532 280.57 253.605 281.43C253.677 282.29 253.037 283.048 252.177 283.12Z" fill="#3F3D56"/>
<path d="M249.177 293.12L215.077 295.994C214.218 296.066 213.459 295.426 213.387 294.566C213.314 293.706 213.955 292.948 214.815 292.876L248.914 290.002C249.774 289.93 250.532 290.57 250.605 291.43C250.677 292.29 250.037 293.048 249.177 293.12Z" fill="#3F3D56"/>
<path d="M246.177 303.12L212.077 305.994C211.218 306.066 210.459 305.426 210.387 304.566C210.314 303.706 210.955 302.948 211.815 302.876L245.914 300.002C246.774 299.93 247.532 300.57 247.605 301.43C247.677 302.29 247.037 303.048 246.177 303.12Z" fill="#3F3D56"/>
<path d="M153.082 190.692L169.172 172.217L166.49 164.425L175.128 172.633L179.586 171.422C179.586 171.422 179.548 155.601 166.914 154.886C154.281 154.171 145.219 155.502 145.219 155.502C145.219 155.502 127.155 161.162 126.449 165.501C125.743 169.839 115.623 175.603 115.623 175.603C115.623 175.603 106.843 182.135 110.948 193.082C115.052 204.029 124.418 217.694 117.935 224.355C111.451 231.017 102.29 236.144 106.754 238.701C111.218 241.258 119.27 229.27 126.603 234.063C133.936 238.856 146.327 258.107 157.95 248.164C169.573 238.222 171.723 226.707 171.723 226.707L153.173 208.375C153.173 208.375 141.935 189.206 153.082 190.692Z" fill="#2F2E41"/>
<path d="M408.795 4.62193H358.249C356.974 4.62193 355.938 3.58504 355.938 2.31072C355.938 1.0364 356.974 0 358.249 0H408.795C410.07 0 411.106 1.03641 411.106 2.31073C411.106 3.58505 410.07 4.62193 408.795 4.62193Z" fill="#3F3D56"/>
<path d="M435.919 29.2784H331.125C329.851 29.2784 328.814 28.2415 328.814 26.9672C328.814 25.6929 329.851 24.6565 331.125 24.6565H435.919C437.193 24.6565 438.23 25.6929 438.23 26.9672C438.23 28.2415 437.193 29.2784 435.919 29.2784Z" fill="#3F3D56"/>
</g>
<defs>
<clipPath id="clip0_414_31">
<rect width="492.459" height="596.977" fill="white" transform="translate(0.770264)"/>
</clipPath>
</defs>
</svg>
