<svg width="404" height="232" viewBox="0 0 404 232" fill="none" xmlns="http://www.w3.org/2000/svg">
<g clip-path="url(#clip0_414_234)">
<path d="M7.04892 69.6371C6.13877 69.9222 5.16959 69.9623 4.23898 69.7535C3.30838 69.5446 2.44923 69.0942 1.74808 68.4474C1.04693 67.8007 0.528547 66.9805 0.245141 66.0696C-0.038265 65.1587 -0.076682 64.1891 0.133763 63.2586C3.2913 50.1181 15.2978 17.9831 59.0377 4.46716C77.9842 -1.38747 96.1541 -1.48742 113.021 4.16789C126.896 8.8011 136.107 16.0515 140.513 19.5559C141.633 20.4418 142.355 21.7364 142.52 23.1547C142.685 24.573 142.281 25.9989 141.395 27.1188C141.384 27.1326 141.373 27.1464 141.362 27.1602C140.452 28.2835 139.138 29.0043 137.702 29.1674C136.266 29.3304 134.824 28.9226 133.686 28.0318C125.703 21.74 101.478 2.62548 62.2155 14.7578C23.8784 26.6043 13.4644 54.3139 10.7633 65.6508C10.5582 66.5873 10.1052 67.4514 9.45176 68.1527C8.7983 68.854 7.96839 69.3666 7.04892 69.6371Z" fill="#17B8A6"/>
<path d="M126.266 144.065C125.831 144.205 125.381 144.29 124.925 144.317C90.754 146.158 69.013 117.761 68.1204 116.577L67.9549 116.303C67.4101 115.458 54.2552 95.4369 60.0464 79.5362C62.7065 72.2669 68.5895 67.1646 77.5817 64.3859C85.9448 61.8016 92.7882 62.566 98.6132 66.7267C103.389 70.1167 106.45 75.1721 109.417 80.0539C115.588 90.1903 119.369 95.3474 131.098 92.372C136.247 91.0646 138.652 87.0371 139.75 83.8997C142.708 75.3626 140.087 63.724 133.152 54.9187C124.192 43.4951 99.1187 24.5211 68.1825 34.0806C54.9717 38.1628 44.1601 46.2074 36.9198 57.2844C30.9218 66.4772 27.4348 77.8947 27.3584 88.5422C27.238 108.367 43.4808 134.449 43.6348 134.686C44.0088 135.284 44.2613 135.95 44.3779 136.646C44.4945 137.342 44.4729 138.054 44.3144 138.742C44.1559 139.43 43.8635 140.079 43.454 140.654C43.0444 141.229 42.5258 141.717 41.9276 142.091C41.911 142.102 41.8943 142.112 41.8776 142.122C40.652 142.887 39.1749 143.138 37.7654 142.823C36.3558 142.507 35.1269 141.65 34.344 140.436C33.6109 139.243 16.2671 111.433 16.4068 88.5202C16.6014 63.6846 31.6888 34.0442 64.9932 23.7528C80.3873 18.996 96.5649 19.7955 111.789 26.0394C123.589 30.9085 134.509 38.9688 141.73 48.1725C150.951 59.9206 154.2 75.2985 150.002 87.3007C147.204 95.3022 141.409 100.823 133.709 102.797C113.64 107.904 105.778 95.0463 100.044 85.6671C94.1558 76.0517 90.8989 71.5434 80.7225 74.688C75.1348 76.4146 71.6924 79.1814 70.2446 83.1566C68.2744 88.5907 70.1416 95.5559 72.0548 100.439C72.0746 100.49 72.0945 100.541 72.1144 100.592C74.5673 106.798 78.3952 112.367 83.3102 116.88C91.1834 124.153 105.8 134.522 124.429 133.522C125.853 133.433 127.254 133.915 128.324 134.859C129.393 135.804 130.044 137.135 130.132 138.56C130.133 138.577 130.134 138.594 130.135 138.611C130.179 139.819 129.824 141.008 129.124 141.994C128.425 142.98 127.42 143.708 126.266 144.065Z" fill="#17B8A6"/>
<path d="M84.8288 154.274C84.1165 154.495 83.3669 154.568 82.6253 154.491C81.8838 154.413 81.1656 154.186 80.5143 153.823C63.6606 144.271 51.8292 131.424 43.3094 113.417L43.2751 113.306C37.9056 101.3 34.6732 82.9569 41.8032 67.4536C47.067 56.0141 56.9475 47.9735 71.1204 43.5939C87.8836 38.414 103.492 42.2277 116.303 54.57C122.129 60.2663 126.867 66.9785 130.283 74.3766C130.828 75.7077 130.827 77.1998 130.28 78.5301C129.734 79.8604 128.686 80.922 127.363 81.4853C126.04 82.0486 124.548 82.0684 123.211 81.5403C121.874 81.0122 120.798 79.9787 120.216 78.6633C117.323 72.4887 113.329 66.8936 108.429 62.1527C98.555 52.7553 87.0764 49.9766 74.2727 53.9331C63.2082 57.3521 55.5892 63.3964 51.689 71.9004C46.0645 84.1406 48.9603 99.4249 53.1623 108.831C60.6747 124.757 71.0949 136.054 85.9284 144.446C86.5411 144.792 87.0798 145.255 87.5137 145.808C87.9476 146.362 88.2681 146.996 88.457 147.674C88.646 148.352 88.6996 149.061 88.6148 149.759C88.53 150.458 88.3085 151.133 87.9629 151.746C87.9492 151.77 87.9354 151.794 87.9213 151.818C87.2303 152.992 86.1283 153.867 84.8288 154.274Z" fill="#17B8A6"/>
<path d="M86.6037 100.443C90.4539 100.443 93.5751 97.3212 93.5751 93.4697C93.5751 89.6183 90.4539 86.496 86.6037 86.496C82.7534 86.496 79.6322 89.6183 79.6322 93.4697C79.6322 97.3212 82.7534 100.443 86.6037 100.443Z" fill="#E6E6E6"/>
<path d="M212.305 178.625C212.161 178.625 212.017 178.614 211.875 178.592C211.506 178.537 211.151 178.41 210.831 178.217C210.511 178.024 210.233 177.77 210.012 177.469L206.183 172.275C205.961 171.974 205.801 171.633 205.712 171.271C205.622 170.909 205.604 170.532 205.66 170.163C205.716 169.794 205.844 169.44 206.036 169.12C206.229 168.801 206.483 168.522 206.783 168.301L239.522 144.147C239.823 143.925 240.164 143.765 240.526 143.675C240.888 143.586 241.264 143.568 241.633 143.624C242.002 143.68 242.357 143.807 242.676 144C242.996 144.193 243.274 144.447 243.496 144.747L247.325 149.941C247.772 150.547 247.96 151.307 247.847 152.052C247.735 152.798 247.331 153.468 246.725 153.915L213.986 178.069C213.5 178.43 212.91 178.625 212.305 178.625Z" fill="#17B8A6"/>
<path d="M235.556 159.177L230.545 152.381C230.133 151.821 229.959 151.12 230.063 150.432C230.167 149.744 230.54 149.126 231.099 148.713L250.271 131.909C250.831 131.496 251.532 131.323 252.22 131.427C252.908 131.531 253.526 131.903 253.939 132.463L263.102 143.414C263.515 143.974 263.689 144.675 263.585 145.363C263.481 146.051 263.108 146.669 262.548 147.082L239.224 159.732C238.664 160.145 237.963 160.318 237.275 160.214C236.587 160.11 235.969 159.737 235.556 159.177Z" fill="#2F2E41"/>
<path d="M266.362 231.851H259.911C259.158 231.851 258.436 231.551 257.903 231.018C257.37 230.485 257.071 229.763 257.07 229.009V175.221C257.071 174.468 257.37 173.745 257.903 173.213C258.436 172.68 259.158 172.38 259.911 172.379H266.362C267.115 172.38 267.838 172.68 268.37 173.213C268.903 173.745 269.203 174.468 269.203 175.221V229.009C269.203 229.763 268.903 230.485 268.37 231.018C267.838 231.551 267.115 231.851 266.362 231.851Z" fill="#17B8A6"/>
<path d="M279.122 231.851H272.671C271.918 231.851 271.195 231.551 270.663 231.018C270.13 230.485 269.83 229.763 269.83 229.009V175.221C269.83 174.468 270.13 173.745 270.663 173.213C271.195 172.68 271.918 172.38 272.671 172.379H279.122C279.876 172.38 280.598 172.68 281.131 173.213C281.663 173.745 281.963 174.468 281.964 175.221V229.009C281.963 229.763 281.663 230.485 281.131 231.018C280.598 231.551 279.876 231.851 279.122 231.851Z" fill="#17B8A6"/>
<path d="M339.614 231.02H197.976V232H339.614V231.02Z" fill="#3F3D56"/>
<path d="M266.731 108.989C279.651 108.989 290.124 98.5121 290.124 85.588C290.124 72.6639 279.651 62.1868 266.731 62.1868C253.811 62.1868 243.337 72.6639 243.337 85.588C243.337 98.5121 253.811 108.989 266.731 108.989Z" fill="#17B8A6"/>
<path d="M302.948 204.271L289.4 144.086V129.866C289.4 128.938 289.032 128.049 288.376 127.393C287.72 126.737 286.831 126.368 285.903 126.368H272.925V117.224C272.925 116.765 272.835 116.31 272.659 115.885C272.483 115.461 272.226 115.075 271.901 114.75C271.576 114.426 271.191 114.168 270.767 113.992C270.342 113.816 269.888 113.726 269.428 113.726H262.435C261.975 113.726 261.521 113.816 261.096 113.992C260.672 114.168 260.287 114.426 259.962 114.75C259.637 115.075 259.38 115.461 259.204 115.885C259.028 116.31 258.938 116.765 258.938 117.224V126.368H245.96C245.032 126.368 244.143 126.737 243.487 127.393C242.831 128.049 242.463 128.938 242.463 129.866V204.674C242.463 205.122 242.55 205.566 242.718 205.982C242.876 206.729 243.28 207.402 243.864 207.894C244.448 208.386 245.18 208.668 245.943 208.696L300.767 210.524C304.043 210.61 305.53 206.348 302.948 204.271Z" fill="#2F2E41"/>
<path d="M266.956 93.9018C265.511 93.8612 263.712 93.8109 262.327 92.7984C261.915 92.4848 261.576 92.0847 261.334 91.6262C261.092 91.1677 260.954 90.6619 260.928 90.1442C260.903 89.776 260.963 89.4071 261.105 89.0661C261.246 88.7251 261.464 88.4214 261.741 88.1787C262.466 87.5673 263.523 87.4242 264.66 87.7586L263.481 79.1332L264.347 79.0145L265.734 89.1544L265.01 88.8227C264.172 88.4375 263.021 88.2419 262.306 88.8466C262.13 89.0047 261.993 89.2012 261.906 89.4209C261.818 89.6405 261.783 89.8774 261.802 90.113C261.823 90.4983 261.927 90.8746 262.107 91.2161C262.286 91.5576 262.537 91.8564 262.843 92.0922C263.921 92.88 265.354 92.982 266.98 93.0273L266.956 93.9018Z" fill="#2F2E41"/>
<path d="M259.197 79.8774H254.489V80.7519H259.197V79.8774Z" fill="#2F2E41"/>
<path d="M274.059 79.8774H269.351V80.7519H274.059V79.8774Z" fill="#2F2E41"/>
<path d="M246.245 70.4623C242.089 67.9431 240.132 63.1642 240.129 58.4379C240.126 55.9186 240.673 53.4292 241.731 51.143C242.789 48.8568 244.332 46.8287 246.254 45.2001C250.534 41.4972 256.233 39.6851 261.802 39.2247C268.539 38.6676 275.232 40.1325 281.666 42.0021C288.556 44.0041 295.306 46.523 302.359 47.9245C309.202 49.2846 316.064 49.4187 322.801 47.452C329.02 45.6367 335.332 42.429 341.975 42.9849C347.712 43.465 352.068 47.284 354.999 52.0023C360.818 61.3697 361.277 73.9427 369.645 81.7432C373.263 85.1159 377.976 86.6437 382.687 87.7857C387.204 88.8807 392.023 89.5823 396.168 91.7984C400.612 94.1747 403.303 98.6412 402.608 103.759C401.818 109.572 397.683 114.574 393.131 117.989C388.338 121.538 382.815 123.974 376.963 125.118C371.111 126.262 365.077 126.086 359.301 124.603C347.223 121.398 337.407 112.034 324.539 111.447C317.36 111.119 310.292 113.076 303.114 112.751C298.139 112.527 292.785 110.687 289.32 106.986C287.657 105.255 286.618 103.018 286.367 100.63C286.288 99.7967 284.976 99.7885 285.055 100.63C285.547 105.858 289.394 109.72 293.986 111.843C296.402 112.952 298.982 113.663 301.626 113.947C305.139 114.335 308.72 113.968 312.217 113.584C315.912 113.179 319.614 112.68 323.34 112.725C326.741 112.779 330.111 113.378 333.322 114.5C339.488 116.616 345.042 120.126 350.933 122.859C356.634 125.505 362.603 127.145 368.918 127.185C375.004 127.216 381.024 125.924 386.563 123.4C392.017 120.915 397.142 117.205 400.538 112.203C403.722 107.514 405.394 101.362 402.528 96.1128C400.283 91.9983 396 89.9163 391.681 88.6344C386.894 87.2134 381.89 86.5643 377.204 84.7947C374.755 83.9143 372.502 82.5625 370.572 80.8157C368.502 78.806 366.797 76.452 365.532 73.8587C362.849 68.6235 361.478 62.8736 359.219 57.466C357.126 52.457 354.262 47.4084 349.649 44.3214C347.17 42.6809 344.289 41.7506 341.319 41.6316C338.033 41.4829 334.767 42.2375 331.644 43.1884C328.339 44.1947 325.114 45.4515 321.784 46.3777C318.277 47.3546 314.64 47.7891 311.001 47.6659C303.517 47.422 296.287 45.198 289.202 42.9558C276.79 39.0277 262.986 34.8226 250.507 40.8775C245.645 43.2367 241.526 47.1949 239.79 52.3926C238.254 56.9916 238.466 62.3561 240.835 66.6408C241.957 68.6788 243.595 70.3869 245.583 71.5949C246.306 72.0336 246.966 70.8997 246.245 70.4623Z" fill="#2F2E41"/>
<path d="M282.411 187.402H275.959C275.206 187.401 274.484 187.101 273.951 186.569C273.418 186.036 273.119 185.313 273.118 184.56V147.282C273.119 146.529 273.418 145.806 273.951 145.274C274.484 144.741 275.206 144.441 275.959 144.44H282.411C283.164 144.441 283.886 144.741 284.419 145.274C284.951 145.806 285.251 146.529 285.252 147.282V184.56C285.251 185.313 284.951 186.036 284.419 186.569C283.886 187.101 283.164 187.401 282.411 187.402Z" fill="#17B8A6"/>
<path d="M257.508 64.6722C257.651 65.6998 258.079 66.6669 258.743 67.4642C259.407 68.2616 260.28 68.8575 261.265 69.1849C262.249 69.5123 263.305 69.558 264.314 69.317C265.323 69.0759 266.245 68.5577 266.975 67.8207L265.879 67.5313C266.49 69.0957 267.515 70.4646 268.844 71.4918C270.172 72.519 271.755 73.1658 273.422 73.3632C275.09 73.5606 276.78 73.3012 278.311 72.6126C279.843 71.924 281.159 70.8322 282.118 69.4537C282.612 68.7675 281.475 68.1119 280.986 68.7916C280.159 69.9499 279.037 70.8652 277.736 71.4423C276.435 72.0193 275.003 72.237 273.59 72.0727C272.177 71.9084 270.833 71.3682 269.699 70.5081C268.566 69.648 267.683 68.4997 267.143 67.1826C267.111 67.0738 267.05 66.9752 266.969 66.8962C266.887 66.8172 266.786 66.7605 266.676 66.7315C266.566 66.7025 266.451 66.7021 266.341 66.7304C266.231 66.7587 266.13 66.8147 266.048 66.8932C265.479 67.4682 264.758 67.8697 263.97 68.0507C263.182 68.2316 262.358 68.1847 261.596 67.9154C260.833 67.646 260.163 67.1653 259.663 66.5294C259.163 65.8934 258.854 65.1284 258.772 64.3235C258.655 63.491 257.391 63.8452 257.508 64.6722Z" fill="#2F2E41"/>
<path d="M216.173 157.8L216.036 157.892L213.498 154.147C213.305 153.862 213.058 153.618 212.77 153.429C212.483 153.24 212.162 153.109 211.824 153.044C211.486 152.979 211.139 152.982 210.802 153.051C210.466 153.12 210.146 153.255 209.861 153.448L201.928 158.828C201.643 159.021 201.399 159.269 201.21 159.556C201.021 159.843 200.89 160.165 200.826 160.503C200.761 160.84 200.763 161.188 200.832 161.524C200.902 161.861 201.037 162.181 201.23 162.466L215.157 183.016C215.35 183.3 215.597 183.544 215.884 183.733C216.171 183.923 216.493 184.053 216.83 184.118C217.168 184.183 217.515 184.181 217.852 184.111C218.189 184.042 218.508 183.907 218.793 183.714L226.727 178.334C227.011 178.141 227.255 177.894 227.444 177.606C227.633 177.319 227.764 176.997 227.829 176.66C227.893 176.322 227.891 175.975 227.822 175.638C227.752 175.301 227.617 174.981 227.425 174.696L217.843 160.559L217.98 160.466L216.173 157.8Z" fill="#3F3D56"/>
<path d="M210.461 154.421L209.459 155.101C209.582 155.182 209.682 155.293 209.752 155.423C209.822 155.553 209.859 155.698 209.86 155.846C209.86 155.993 209.825 156.139 209.756 156.269C209.687 156.399 209.587 156.511 209.465 156.594L205.066 159.577C204.944 159.66 204.803 159.711 204.657 159.727C204.51 159.742 204.362 159.722 204.225 159.667C204.088 159.611 203.967 159.524 203.873 159.41C203.778 159.297 203.712 159.163 203.682 159.019L202.745 159.654C202.54 159.793 202.363 159.972 202.227 160.179C202.09 160.387 201.996 160.62 201.949 160.864C201.902 161.108 201.904 161.359 201.954 161.602C202.004 161.846 202.101 162.077 202.241 162.283L215.701 182.144C215.84 182.35 216.019 182.526 216.227 182.663C216.434 182.799 216.667 182.894 216.911 182.941C217.155 182.988 217.406 182.986 217.649 182.936C217.893 182.886 218.124 182.788 218.329 182.649L226.045 177.416C226.461 177.135 226.747 176.699 226.842 176.206C226.936 175.713 226.831 175.202 226.55 174.787L213.09 154.926C212.95 154.72 212.771 154.544 212.564 154.407C212.356 154.27 212.124 154.176 211.88 154.129C211.636 154.082 211.385 154.084 211.141 154.134C210.898 154.184 210.667 154.281 210.461 154.421Z" fill="white"/>
</g>
<defs>
<clipPath id="clip0_414_234">
<rect width="404" height="232" fill="white"/>
</clipPath>
</defs>
</svg>
