<svg width="732" height="551" viewBox="0 0 732 551" fill="none" xmlns="http://www.w3.org/2000/svg">
<g clip-path="url(#clip0_483_101)">
<path d="M317.682 178.649C343.099 178.649 363.703 158.044 363.703 132.627C363.703 107.21 343.099 86.606 317.682 86.606C292.265 86.606 271.66 107.21 271.66 132.627C271.66 158.044 292.265 178.649 317.682 178.649Z" fill="#FF6884"/>
<path d="M0 334.134C0 334.794 0.53003 335.324 1.19006 335.324H730.48C731.14 335.324 731.67 334.794 731.67 334.134C731.67 333.474 731.14 332.944 730.48 332.944H1.19006C0.53003 332.944 0 333.474 0 334.134Z" fill="#3F3D56"/>
<path d="M466.985 81.606L470.811 130.557L526.268 107.393L494.985 57.606L466.985 81.606Z" fill="#A0616A"/>
<path d="M465.323 96.5194C488.154 96.5194 506.662 78.0115 506.662 55.1808C506.662 32.3501 488.154 13.8422 465.323 13.8422C442.493 13.8422 423.985 32.3501 423.985 55.1808C423.985 78.0115 442.493 96.5194 465.323 96.5194Z" fill="#A0616A"/>
<path d="M387.985 440.606L394.985 503.393L345.985 496.606L361.985 438.606L387.985 440.606Z" fill="#A0616A"/>
<path d="M578.985 449.606L585.985 512.393L536.985 505.606L552.985 447.606L578.985 449.606Z" fill="#A0616A"/>
<path d="M462.485 260.106C461.816 260.106 408.339 262.791 373.008 264.569C356.285 265.41 343.556 279.884 344.853 296.578L357.485 459.106L393.485 460.106L394.363 329.106L465.485 333.106L462.485 260.106Z" fill="#2F2E41"/>
<path d="M619.485 259.106C619.485 259.106 628.485 328.106 621.485 335.106C614.485 342.106 394.985 329.606 394.985 329.606C394.985 329.606 443.138 260.069 451.811 258.087C460.485 256.106 598.485 249.106 598.485 249.106L619.485 259.106Z" fill="#2F2E41"/>
<path d="M335.127 172.233C326.768 160.543 326.024 146.753 333.465 141.435C340.906 136.116 353.712 141.283 362.072 152.979C365.476 157.605 367.722 162.979 368.623 168.651L403.415 218.633L383.615 232.341L347.841 183.507C342.763 180.818 338.403 176.953 335.127 172.233Z" fill="#A0616A"/>
<path d="M465.674 331.017C452.927 337.654 439.169 336.457 434.947 328.344C430.724 320.231 437.634 308.276 450.387 301.638C455.445 298.917 461.081 297.446 466.823 297.349L521.189 269.908L531.986 291.434L478.618 320.009C475.245 324.659 470.806 328.434 465.674 331.017Z" fill="#A0616A"/>
<path d="M464.985 112.606L515.985 91.606L611.985 239.606C611.985 239.606 544.985 254.606 521.985 257.606C498.985 260.606 472.985 248.606 472.985 248.606L464.985 112.606Z" fill="#E6E6E6"/>
<path d="M526.985 137.606L508.485 79.8973L532.485 98.106C532.485 98.106 600.485 143.106 600.485 162.106C600.485 181.106 621.485 239.106 621.485 239.106C621.485 239.106 644.985 258.606 636.985 276.606C628.985 294.606 647.485 292.106 649.485 305.106C651.485 318.106 620.985 335.606 620.985 335.606C620.985 335.606 613.485 262.106 589.485 262.106C565.485 262.106 526.985 137.606 526.985 137.606Z" fill="#3F3D56"/>
<path d="M468.568 111.13L443.485 121.106C443.485 121.106 447.485 191.106 451.485 197.106C455.485 203.106 469.485 235.106 469.485 235.106V245.535C469.485 245.535 441.485 254.106 442.485 259.106C443.485 264.106 508.485 278.106 508.485 278.106C508.485 278.106 495.485 238.106 487.485 225.106C479.485 212.106 468.568 111.13 468.568 111.13Z" fill="#3F3D56"/>
<path d="M527.485 97.106C527.485 97.106 583.485 94.106 595.485 124.106C607.485 154.106 617.485 252.106 617.485 252.106L495.485 318.48L474.485 286.106L556.485 222.106L527.485 97.106Z" fill="#3F3D56"/>
<path d="M452.485 121.106C452.485 121.106 423.485 117.106 418.485 151.106C413.485 185.106 416.662 189.606 416.662 189.606L408.485 209.106L381.485 179.106L355.485 196.106C355.485 196.106 402.485 272.106 421.485 270.106C440.485 268.106 468.485 213.106 468.485 213.106L452.485 121.106Z" fill="#3F3D56"/>
<path d="M597.323 270.145L582.485 480.106L543.985 478.606C543.985 478.606 535.485 280.106 535.485 277.106C535.485 274.106 539.485 257.106 564.485 256.106C589.485 255.106 597.323 270.145 597.323 270.145Z" fill="#2F2E41"/>
<path d="M541.485 484.106C541.485 484.106 561.485 478.106 564.485 482.106C567.485 486.106 584.485 488.106 584.485 488.106L589.485 537.106C589.485 537.106 575.485 547.106 573.485 549.106C571.485 551.106 518.485 553.106 517.485 541.106C516.485 529.106 531.485 514.106 531.485 514.106L541.485 484.106Z" fill="#2F2E41"/>
<path d="M394.485 470.106C394.485 470.106 400.485 465.106 402.485 479.106C404.485 493.106 411.485 516.106 401.485 519.106C391.485 522.106 291.485 523.106 291.485 514.106V505.106L300.485 498.106L318.489 495.237C318.489 495.237 353.485 463.106 357.485 463.106C361.485 463.106 374.485 476.106 374.485 476.106L394.485 470.106Z" fill="#2F2E41"/>
<path d="M505.985 77.606C505.985 77.606 485.985 53.606 477.985 55.606C469.985 57.606 474.985 60.606 474.985 60.606L454.985 38.606C454.985 38.606 438.985 32.606 423.985 51.606C423.985 51.606 414.985 35.606 423.985 26.606C432.985 17.606 435.985 18.606 437.985 13.606C439.985 8.60599 453.985 4.60599 453.985 4.60599C453.985 4.60599 453.181 -2.59086 457.583 1.00756C461.985 4.60598 472.977 4.60599 472.977 4.60599C472.977 4.60599 473.04 0.605987 477.512 4.60599C481.985 8.60599 486.985 6.60599 486.985 6.60599C486.985 6.60599 486.985 13.5272 490.485 13.5666C493.985 13.606 499.985 8.60599 500.985 12.606C501.985 16.606 508.985 18.606 509.985 30.606C510.985 42.606 505.985 77.606 505.985 77.606Z" fill="#2F2E41"/>
<path d="M285.084 107.214H122.265C112.582 107.214 104.731 115.065 104.731 124.749V124.749C104.731 134.432 112.582 142.283 122.265 142.283H285.084C294.768 142.283 302.618 134.432 302.618 124.749C302.618 115.065 294.768 107.214 285.084 107.214Z" fill="#3F3D56"/>
<path d="M285.293 30.606H125.397V205.949H285.293V30.606Z" fill="white"/>
<path d="M286.293 206.949H124.397V29.606H286.293V206.949ZM126.397 204.949H284.293V31.606H126.397V204.949Z" fill="#3F3D56"/>
<path d="M295.521 132.681H115.168C102.256 132.681 91.7893 143.148 91.7893 156.06V156.06C91.7893 168.972 102.256 179.439 115.168 179.439H295.521C308.433 179.439 318.9 168.972 318.9 156.06C318.9 143.148 308.433 132.681 295.521 132.681Z" fill="#3F3D56"/>
<path d="M332.26 171.507C334.565 171.507 336.435 165.245 336.435 157.521C336.435 149.797 334.565 143.535 332.26 143.535C329.954 143.535 328.085 149.797 328.085 157.521C328.085 165.245 329.954 171.507 332.26 171.507Z" fill="#3F3D56"/>
<path d="M73.42 169.837C76.1868 169.837 78.4298 163.762 78.4298 156.269C78.4298 148.775 76.1868 142.7 73.42 142.7C70.6531 142.7 68.4102 148.775 68.4102 156.269C68.4102 163.762 70.6531 169.837 73.42 169.837Z" fill="#3F3D56"/>
<path d="M103.479 154.39H74.6724V157.312H103.479V154.39Z" fill="#3F3D56"/>
<path d="M329.755 155.642H306.376V159.817H329.755V155.642Z" fill="#3F3D56"/>
<path d="M302.334 337.957H129.439C115.77 337.957 104.649 326.835 104.649 313.167V189.326C104.649 175.657 115.77 164.536 129.439 164.536H302.334C316.003 164.536 327.123 175.657 327.123 189.326V313.167C327.123 326.835 316.003 337.957 302.334 337.957Z" fill="#3F3D56"/>
<path d="M123.518 263.771C126.516 263.771 128.945 261.341 128.945 258.343C128.945 255.346 126.516 252.916 123.518 252.916C120.521 252.916 118.091 255.346 118.091 258.343C118.091 261.341 120.521 263.771 123.518 263.771Z" fill="#17B8A6"/>
<path d="M131.033 281.305C134.03 281.305 136.46 278.875 136.46 275.878C136.46 272.88 134.03 270.45 131.033 270.45C128.035 270.45 125.605 272.88 125.605 275.878C125.605 278.875 128.035 281.305 131.033 281.305Z" fill="#17B8A6"/>
<path d="M136.46 297.169C139.457 297.169 141.887 294.739 141.887 291.742C141.887 288.745 139.457 286.315 136.46 286.315C133.463 286.315 131.033 288.745 131.033 291.742C131.033 294.739 133.463 297.169 136.46 297.169Z" fill="#17B8A6"/>
<path d="M146.062 313.451C149.059 313.451 151.489 311.021 151.489 308.024C151.489 305.026 149.059 302.596 146.062 302.596C143.065 302.596 140.635 305.026 140.635 308.024C140.635 311.021 143.065 313.451 146.062 313.451Z" fill="#17B8A6"/>
<path d="M161.927 313.451C164.924 313.451 167.354 311.021 167.354 308.024C167.354 305.026 164.924 302.596 161.927 302.596C158.929 302.596 156.499 305.026 156.499 308.024C156.499 311.021 158.929 313.451 161.927 313.451Z" fill="#17B8A6"/>
<path d="M177.791 313.451C180.788 313.451 183.218 311.021 183.218 308.024C183.218 305.026 180.788 302.596 177.791 302.596C174.793 302.596 172.364 305.026 172.364 308.024C172.364 311.021 174.793 313.451 177.791 313.451Z" fill="#17B8A6"/>
<path d="M193.655 313.451C196.653 313.451 199.083 311.021 199.083 308.024C199.083 305.026 196.653 302.596 193.655 302.596C190.658 302.596 188.228 305.026 188.228 308.024C188.228 311.021 190.658 313.451 193.655 313.451Z" fill="#17B8A6"/>
<path d="M209.52 313.451C212.517 313.451 214.947 311.021 214.947 308.024C214.947 305.026 212.517 302.596 209.52 302.596C206.522 302.596 204.092 305.026 204.092 308.024C204.092 311.021 206.522 313.451 209.52 313.451Z" fill="#17B8A6"/>
<path d="M225.384 313.451C228.381 313.451 230.811 311.021 230.811 308.024C230.811 305.026 228.381 302.596 225.384 302.596C222.387 302.596 219.957 305.026 219.957 308.024C219.957 311.021 222.387 313.451 225.384 313.451Z" fill="#17B8A6"/>
<path d="M241.248 313.451C244.246 313.451 246.676 311.021 246.676 308.024C246.676 305.026 244.246 302.596 241.248 302.596C238.251 302.596 235.821 305.026 235.821 308.024C235.821 311.021 238.251 313.451 241.248 313.451Z" fill="#17B8A6"/>
<path d="M257.113 313.451C260.11 313.451 262.54 311.021 262.54 308.024C262.54 305.026 260.11 302.596 257.113 302.596C254.115 302.596 251.686 305.026 251.686 308.024C251.686 311.021 254.115 313.451 257.113 313.451Z" fill="#17B8A6"/>
<path d="M272.977 313.451C275.975 313.451 278.404 311.021 278.404 308.024C278.404 305.026 275.975 302.596 272.977 302.596C269.98 302.596 267.55 305.026 267.55 308.024C267.55 311.021 269.98 313.451 272.977 313.451Z" fill="#17B8A6"/>
<path d="M288.841 313.451C291.839 313.451 294.269 311.021 294.269 308.024C294.269 305.026 291.839 302.596 288.841 302.596C285.844 302.596 283.414 305.026 283.414 308.024C283.414 311.021 285.844 313.451 288.841 313.451Z" fill="#17B8A6"/>
<path d="M152.617 297.169C155.614 297.169 158.044 294.739 158.044 291.742C158.044 288.745 155.614 286.315 152.617 286.315C149.619 286.315 147.189 288.745 147.189 291.742C147.189 294.739 149.619 297.169 152.617 297.169Z" fill="#17B8A6"/>
<path d="M168.773 297.169C171.771 297.169 174.201 294.739 174.201 291.742C174.201 288.745 171.771 286.315 168.773 286.315C165.776 286.315 163.346 288.745 163.346 291.742C163.346 294.739 165.776 297.169 168.773 297.169Z" fill="#17B8A6"/>
<path d="M184.93 297.169C187.927 297.169 190.357 294.739 190.357 291.742C190.357 288.745 187.927 286.315 184.93 286.315C181.932 286.315 179.502 288.745 179.502 291.742C179.502 294.739 181.932 297.169 184.93 297.169Z" fill="#17B8A6"/>
<path d="M201.086 297.169C204.084 297.169 206.514 294.739 206.514 291.742C206.514 288.745 204.084 286.315 201.086 286.315C198.089 286.315 195.659 288.745 195.659 291.742C195.659 294.739 198.089 297.169 201.086 297.169Z" fill="#17B8A6"/>
<path d="M217.243 297.169C220.24 297.169 222.67 294.739 222.67 291.742C222.67 288.745 220.24 286.315 217.243 286.315C214.246 286.315 211.816 288.745 211.816 291.742C211.816 294.739 214.246 297.169 217.243 297.169Z" fill="#17B8A6"/>
<path d="M233.4 297.169C236.397 297.169 238.827 294.739 238.827 291.742C238.827 288.745 236.397 286.315 233.4 286.315C230.402 286.315 227.972 288.745 227.972 291.742C227.972 294.739 230.402 297.169 233.4 297.169Z" fill="#17B8A6"/>
<path d="M249.556 297.169C252.554 297.169 254.983 294.739 254.983 291.742C254.983 288.745 252.554 286.315 249.556 286.315C246.559 286.315 244.129 288.745 244.129 291.742C244.129 294.739 246.559 297.169 249.556 297.169Z" fill="#17B8A6"/>
<path d="M265.713 297.169C268.71 297.169 271.14 294.739 271.14 291.742C271.14 288.745 268.71 286.315 265.713 286.315C262.716 286.315 260.286 288.745 260.286 291.742C260.286 294.739 262.716 297.169 265.713 297.169Z" fill="#17B8A6"/>
<path d="M281.869 297.169C284.867 297.169 287.297 294.739 287.297 291.742C287.297 288.745 284.867 286.315 281.869 286.315C278.872 286.315 276.442 288.745 276.442 291.742C276.442 294.739 278.872 297.169 281.869 297.169Z" fill="#17B8A6"/>
<path d="M298.026 297.169C301.024 297.169 303.453 294.739 303.453 291.742C303.453 288.745 301.024 286.315 298.026 286.315C295.029 286.315 292.599 288.745 292.599 291.742C292.599 294.739 295.029 297.169 298.026 297.169Z" fill="#17B8A6"/>
<path d="M147.314 281.305C150.312 281.305 152.742 278.875 152.742 275.878C152.742 272.88 150.312 270.45 147.314 270.45C144.317 270.45 141.887 272.88 141.887 275.878C141.887 278.875 144.317 281.305 147.314 281.305Z" fill="#17B8A6"/>
<path d="M163.596 281.305C166.594 281.305 169.024 278.875 169.024 275.878C169.024 272.88 166.594 270.45 163.596 270.45C160.599 270.45 158.169 272.88 158.169 275.878C158.169 278.875 160.599 281.305 163.596 281.305Z" fill="#17B8A6"/>
<path d="M179.878 281.305C182.876 281.305 185.305 278.875 185.305 275.878C185.305 272.88 182.876 270.45 179.878 270.45C176.881 270.45 174.451 272.88 174.451 275.878C174.451 278.875 176.881 281.305 179.878 281.305Z" fill="#17B8A6"/>
<path d="M196.16 281.305C199.158 281.305 201.587 278.875 201.587 275.878C201.587 272.88 199.158 270.45 196.16 270.45C193.163 270.45 190.733 272.88 190.733 275.878C190.733 278.875 193.163 281.305 196.16 281.305Z" fill="#17B8A6"/>
<path d="M212.442 281.305C215.439 281.305 217.869 278.875 217.869 275.878C217.869 272.88 215.439 270.45 212.442 270.45C209.445 270.45 207.015 272.88 207.015 275.878C207.015 278.875 209.445 281.305 212.442 281.305Z" fill="#17B8A6"/>
<path d="M228.724 281.305C231.721 281.305 234.151 278.875 234.151 275.878C234.151 272.88 231.721 270.45 228.724 270.45C225.727 270.45 223.297 272.88 223.297 275.878C223.297 278.875 225.727 281.305 228.724 281.305Z" fill="#17B8A6"/>
<path d="M245.006 281.305C248.003 281.305 250.433 278.875 250.433 275.878C250.433 272.88 248.003 270.45 245.006 270.45C242.008 270.45 239.578 272.88 239.578 275.878C239.578 278.875 242.008 281.305 245.006 281.305Z" fill="#17B8A6"/>
<path d="M261.288 281.305C264.285 281.305 266.715 278.875 266.715 275.878C266.715 272.88 264.285 270.45 261.288 270.45C258.29 270.45 255.86 272.88 255.86 275.878C255.86 278.875 258.29 281.305 261.288 281.305Z" fill="#17B8A6"/>
<path d="M277.569 281.305C280.567 281.305 282.997 278.875 282.997 275.878C282.997 272.88 280.567 270.45 277.569 270.45C274.572 270.45 272.142 272.88 272.142 275.878C272.142 278.875 274.572 281.305 277.569 281.305Z" fill="#17B8A6"/>
<path d="M293.851 281.305C296.849 281.305 299.279 278.875 299.279 275.878C299.279 272.88 296.849 270.45 293.851 270.45C290.854 270.45 288.424 272.88 288.424 275.878C288.424 278.875 290.854 281.305 293.851 281.305Z" fill="#17B8A6"/>
<path d="M310.133 281.305C313.131 281.305 315.56 278.875 315.56 275.878C315.56 272.88 313.131 270.45 310.133 270.45C307.136 270.45 304.706 272.88 304.706 275.878C304.706 278.875 307.136 281.305 310.133 281.305Z" fill="#17B8A6"/>
<path d="M139.8 263.771C142.797 263.771 145.227 261.341 145.227 258.343C145.227 255.346 142.797 252.916 139.8 252.916C136.802 252.916 134.373 255.346 134.373 258.343C134.373 261.341 136.802 263.771 139.8 263.771Z" fill="#17B8A6"/>
<path d="M156.082 263.771C159.079 263.771 161.509 261.341 161.509 258.343C161.509 255.346 159.079 252.916 156.082 252.916C153.084 252.916 150.654 255.346 150.654 258.343C150.654 261.341 153.084 263.771 156.082 263.771Z" fill="#17B8A6"/>
<path d="M172.364 263.771C175.361 263.771 177.791 261.341 177.791 258.343C177.791 255.346 175.361 252.916 172.364 252.916C169.366 252.916 166.936 255.346 166.936 258.343C166.936 261.341 169.366 263.771 172.364 263.771Z" fill="#17B8A6"/>
<path d="M188.645 263.771C191.643 263.771 194.073 261.341 194.073 258.343C194.073 255.346 191.643 252.916 188.645 252.916C185.648 252.916 183.218 255.346 183.218 258.343C183.218 261.341 185.648 263.771 188.645 263.771Z" fill="#17B8A6"/>
<path d="M204.927 263.771C207.925 263.771 210.355 261.341 210.355 258.343C210.355 255.346 207.925 252.916 204.927 252.916C201.93 252.916 199.5 255.346 199.5 258.343C199.5 261.341 201.93 263.771 204.927 263.771Z" fill="#17B8A6"/>
<path d="M221.209 263.771C224.206 263.771 226.636 261.341 226.636 258.343C226.636 255.346 224.206 252.916 221.209 252.916C218.212 252.916 215.782 255.346 215.782 258.343C215.782 261.341 218.212 263.771 221.209 263.771Z" fill="#17B8A6"/>
<path d="M237.491 263.771C240.488 263.771 242.918 261.341 242.918 258.343C242.918 255.346 240.488 252.916 237.491 252.916C234.494 252.916 232.064 255.346 232.064 258.343C232.064 261.341 234.494 263.771 237.491 263.771Z" fill="#17B8A6"/>
<path d="M253.773 263.771C256.77 263.771 259.2 261.341 259.2 258.343C259.2 255.346 256.77 252.916 253.773 252.916C250.775 252.916 248.345 255.346 248.345 258.343C248.345 261.341 250.775 263.771 253.773 263.771Z" fill="#17B8A6"/>
<path d="M270.055 263.771C273.052 263.771 275.482 261.341 275.482 258.343C275.482 255.346 273.052 252.916 270.055 252.916C267.057 252.916 264.627 255.346 264.627 258.343C264.627 261.341 267.057 263.771 270.055 263.771Z" fill="#17B8A6"/>
<path d="M286.336 263.771C289.334 263.771 291.764 261.341 291.764 258.343C291.764 255.346 289.334 252.916 286.336 252.916C283.339 252.916 280.909 255.346 280.909 258.343C280.909 261.341 283.339 263.771 286.336 263.771Z" fill="#17B8A6"/>
<path d="M302.618 263.771C305.616 263.771 308.046 261.341 308.046 258.343C308.046 255.346 305.616 252.916 302.618 252.916C299.621 252.916 297.191 255.346 297.191 258.343C297.191 261.341 299.621 263.771 302.618 263.771Z" fill="#17B8A6"/>
<path d="M128.11 209.08C139.869 209.08 149.402 199.548 149.402 187.789C149.402 176.029 139.869 166.497 128.11 166.497C116.351 166.497 106.819 176.029 106.819 187.789C106.819 199.548 116.351 209.08 128.11 209.08Z" fill="#17B8A6"/>
<path d="M300.948 209.08C312.707 209.08 322.24 199.548 322.24 187.789C322.24 176.029 312.707 166.497 300.948 166.497C289.189 166.497 279.657 176.029 279.657 187.789C279.657 199.548 289.189 209.08 300.948 209.08Z" fill="#17B8A6"/>
<path d="M180.522 179.439H246.223C249.168 179.439 251.851 181.13 253.122 183.786L270.853 220.846C273.281 225.922 269.581 231.794 263.954 231.794H167.815C162.568 231.794 158.879 226.63 160.581 221.666L173.288 184.606C174.348 181.515 177.255 179.439 180.522 179.439Z" fill="#17B8A6"/>
<path d="M251.985 56.606H155.568V58.606H251.985V56.606Z" fill="#3F3D56"/>
<path d="M251.985 74.606H155.568V76.606H251.985V74.606Z" fill="#3F3D56"/>
<path d="M251.985 92.606H155.568V94.606H251.985V92.606Z" fill="#3F3D56"/>
</g>
<defs>
<clipPath id="clip0_483_101">
<rect width="731.67" height="550.618" fill="white"/>
</clipPath>
</defs>
</svg>
