<svg width="100" height="100" viewBox="0 0 100 100" fill="none" xmlns="http://www.w3.org/2000/svg">
<path d="M70.84 29.1581C66.0937 24.4116 61.1054 20.2859 56.0912 16.8591C61.8304 13.938 67.265 12.1821 71.98 11.6381C77.9262 10.952 82.3196 12.2155 85.0512 14.9472C87.7829 17.6789 89.0462 22.0724 88.3604 28.0185C87.8162 32.7334 86.0604 38.168 83.1392 43.9075C79.7125 38.8929 75.5867 33.9046 70.84 29.1581Z" fill="#17B8A6"/>
<path fill-rule="evenodd" clip-rule="evenodd" d="M66.4209 33.5775C71.7267 38.8832 76.1775 44.4767 79.665 49.9979C76.1779 55.5188 71.7271 61.1117 66.4217 66.4167C61.1154 71.7229 55.5221 76.1742 50.0009 79.6613C44.4796 76.1742 38.8865 71.7229 33.5809 66.4175C28.2754 61.1117 23.8244 55.5188 20.3373 49.9979C23.8245 44.4763 28.2758 38.8828 33.5817 33.5769C38.8871 28.2715 44.48 23.8206 50.0009 20.3336C55.5221 23.8207 61.115 28.2718 66.4209 33.5775ZM50 60.4167C55.7529 60.4167 60.4167 55.7529 60.4167 50C60.4167 44.2471 55.7529 39.5833 50 39.5833C44.2471 39.5833 39.5834 44.2471 39.5834 50C39.5834 55.7529 44.2471 60.4167 50 60.4167Z" fill="#2F2E41"/>
<path d="M56.0912 83.1358C61.1058 79.7087 66.0942 75.5829 70.8408 70.8362C75.5871 66.09 79.7125 61.1025 83.1392 56.0883C86.06 61.8275 87.8158 67.2617 88.3596 71.9762C89.0454 77.9221 87.7821 82.3154 85.0504 85.0471C82.3187 87.7787 77.9254 89.0421 71.9796 88.3562C67.2646 87.8125 61.8304 86.0567 56.0912 83.1358Z" fill="#17B8A6"/>
<path d="M29.1615 70.8366C33.9077 75.5833 38.8959 79.7087 43.91 83.1354C38.1712 86.0562 32.7371 87.8121 28.0226 88.3558C22.0768 89.0417 17.6837 87.7783 14.9521 85.0466C12.2205 82.315 10.957 77.9217 11.6429 71.9758C12.1867 67.2617 13.9423 61.8275 16.863 56.0883C20.2897 61.1025 24.4152 66.0904 29.1615 70.8366Z" fill="#17B8A6"/>
<path d="M16.8628 43.9071C20.2897 38.8927 24.4156 33.9041 29.1623 29.1574C33.9084 24.4113 38.8963 20.2858 43.9104 16.8592C38.1712 13.9383 32.7367 12.1825 28.0221 11.6386C22.0762 10.9526 17.6829 12.2161 14.9512 14.9477C12.2195 17.6794 10.9561 22.0728 11.6421 28.0189C12.186 32.7336 13.9419 38.1681 16.8628 43.9071Z" fill="#17B8A6"/>
</svg>
