<svg width="48" height="49" viewBox="0 0 48 49" fill="none" xmlns="http://www.w3.org/2000/svg">
<path d="M34.0032 14.4959C31.725 12.2176 29.3306 10.2372 26.9238 8.59238C29.6786 7.19024 32.2872 6.34738 34.5504 6.08626C37.4046 5.75696 39.5134 6.36342 40.8246 7.67464C42.1358 8.98588 42.7422 11.0947 42.413 13.9489C42.1518 16.212 41.309 18.8206 39.9068 21.5756C38.262 19.1686 36.2816 16.7742 34.0032 14.4959Z" fill="black"/>
<path fill-rule="evenodd" clip-rule="evenodd" d="M31.8821 16.6172C34.4289 19.164 36.5653 21.8488 38.2393 24.499C36.5655 27.149 34.4291 29.8336 31.8825 32.38C29.3355 34.927 26.6507 37.0636 24.0005 38.7374C21.3503 37.0636 18.6656 34.927 16.1189 32.3804C13.5722 29.8336 11.4358 27.149 9.76196 24.499C11.4358 21.8486 13.5724 19.1638 16.1193 16.6169C18.6659 14.0704 21.3505 11.9339 24.0005 10.2601C26.6507 11.934 29.3353 14.0705 31.8821 16.6172ZM24.0001 29.5C26.7615 29.5 29.0001 27.2614 29.0001 24.5C29.0001 21.7386 26.7615 19.5 24.0001 19.5C21.2387 19.5 19.0001 21.7386 19.0001 24.5C19.0001 27.2614 21.2387 29.5 24.0001 29.5Z" fill="black"/>
<path d="M26.9238 40.4052C29.3308 38.7602 31.7252 36.7798 34.0036 34.5014C36.2818 32.2232 38.262 29.8292 39.9068 27.4224C41.3088 30.1772 42.1516 32.7856 42.4126 35.0486C42.7418 37.9026 42.1354 40.0114 40.8242 41.3226C39.513 42.6338 37.4042 43.2402 34.5502 42.911C32.287 42.65 29.6786 41.8072 26.9238 40.4052Z" fill="black"/>
<path d="M13.9976 34.5016C16.2758 36.78 18.6701 38.7602 21.0769 40.405C18.3223 41.807 15.7139 42.6498 13.4509 42.9108C10.597 43.24 8.48825 42.6336 7.17709 41.3224C5.86591 40.0112 5.25945 37.9024 5.58867 35.0484C5.84971 32.7856 6.69241 30.1772 8.09431 27.4224C9.73913 29.8292 11.7194 32.2234 13.9976 34.5016Z" fill="black"/>
<path d="M8.09416 21.5754C9.73906 19.1685 11.7195 16.774 13.9979 14.4956C16.276 12.2175 18.6702 10.2372 21.077 8.59245C18.3222 7.19043 15.7136 6.34763 13.4506 6.08655C10.5966 5.75729 8.4878 6.36375 7.1766 7.67495C5.86538 8.98617 5.25892 11.095 5.5882 13.9491C5.8493 16.2121 6.69212 18.8207 8.09416 21.5754Z" fill="black"/>
</svg>
